<svg width="53" height="52" viewBox="0 0 53 52" fill="none" xmlns="http://www.w3.org/2000/svg">
<path d="M49.393 34.655C50.2556 34.6144 50.9355 35.1827 51.443 36.3599C52.265 38.075 52.4375 39.8002 51.9707 41.5152C51.8184 42.1038 51.3415 42.5301 50.56 42.8041C49.6974 43.1593 46.653 43.413 41.4165 43.5652C36.18 43.7174 33.4399 43.7986 33.2065 43.7986L32.212 43.9711C32.0801 44.7018 31.4407 48.6393 31.2784 49.3091C31.1261 50.1717 30.6086 50.6791 29.7561 50.8313C28.9037 50.9836 26.8842 51.1053 23.7179 51.1865C22.9365 51.2271 22.4697 50.7603 22.3073 49.7759V47.3099C22.3073 46.8735 22.3986 46.153 22.3073 45.7876C22.2667 45.6354 22.2464 45.4832 22.2464 45.3513C22.2464 44.5699 20.8865 44.5394 20.1965 44.3872C19.5368 44.2654 16.6649 44.1335 11.6009 43.9813C6.5369 43.829 3.48228 43.7478 2.42687 43.7478C1.76723 43.7478 1.23951 43.3419 0.843732 42.5199C0.102909 40.8353 0.0420217 38.8056 0.671214 36.4208C0.7524 35.9946 1.28011 35.68 2.25435 35.4872C2.46746 35.3451 2.71101 35.4263 9.28708 35.4263C21.9724 35.0305 36.6468 34.6652 49.4031 34.6652L49.393 34.655ZM17.081 5.45847V9.27422L35.6117 8.27969V1.24694C38.4938 0.556862 42.2588 0.780124 45.699 0.780124C46.2775 0.780124 47.0285 1.72391 47.1604 2.19073C48.2158 6.83863 48.8247 10.0658 48.9769 11.862C49.2306 13.8612 48.5304 16.2968 48.2767 18.0829C48.1955 18.4381 47.7693 20.894 46.9879 25.4708C44.2478 25.7042 42.8068 25.826 42.6444 25.826C31.4204 26.2523 24.7733 26.4755 22.7031 26.4755C19.618 26.4755 15.1528 26.1406 9.32768 25.481C6.3441 25.1156 4.05059 22.9135 4.05059 19.6762L3.9897 13.1711C3.92881 11.6489 3.41125 6.57478 3.34021 5.08299C3.34021 4.51468 3.62436 3.71297 3.9897 3.49986C6.41513 2.32266 8.73908 1.91673 10.9717 2.27192C13.1231 2.58651 14.28 2.73874 14.4323 2.73874C16.3706 2.73874 16.9896 3.66223 17.0708 5.49906L17.081 5.45847ZM17.4869 17.5349C17.5681 21.036 17.8827 21.4014 21.4142 21.4014C25.9911 21.3202 29.7967 21.2289 32.8513 21.1071C36.1495 21.0259 36.8498 20.5388 37.4891 17.819C38.1589 14.9065 36.1597 12.9783 33.3283 13.1306C32.3947 13.1711 27.2292 13.5771 17.8421 14.3585C17.6696 15.2211 17.3752 16.4693 17.4869 17.5247V17.5349Z" fill="#FFFFF0"/>
</svg>
