<svg width="190" height="34" viewBox="0 0 190 34" fill="none" xmlns="http://www.w3.org/2000/svg">
<path d="M17.9218 1.36334L12.4925 8.5686L7.94609 16.0885L6.56592 25.4452L0 32.2039L9.13343 30.6512L17.9218 31.0673L26.7102 31.798L35.8639 32.214L32.1801 23.7707L28.2832 15.8754L23.2598 8.6295L17.9218 1.36334Z" fill="#ACFF97"/>
<path d="M39.8013 1.88068L34.0168 8.36541L29.9676 16.1796L26.5883 24.3692L20.55 32.9648L31.0129 33.6752L39.7911 32.4777L48.5795 30.4988L58.6771 32.7517L52.2837 24.7954L47.1689 17.6003L43.9519 9.31935L39.8013 1.88068Z" fill="#ACFF97"/>
<path d="M61.9044 0.967285L57.3884 9.09604L51.675 15.936L48.7218 24.3895L43.5056 32.4776L53.116 30.2552L61.9044 30.5495L70.6928 30.5901L80.902 32.8227L75.6451 24.0647L71.1799 16.5043L65.5476 9.59331L61.9044 0.967285Z" fill="#ACFF97"/>
<path d="M84.0175 2.14465L79.8161 9.28902L73.4329 15.7332L69.9622 23.8822L67.3135 31.4934L75.2291 30.3061L84.0074 34L92.8059 32.9852L102.7 32.6402L95.5459 25.3436L92.7146 16.8393L87.5491 9.69495L84.0175 2.14465Z" fill="#ACFF97"/>
<path d="M105.897 2.82471L99.7978 8.18299L98.0421 17.3164L92.5519 24.2984L88.3708 31.9705L97.1085 30.9354L105.887 32.1329L114.675 31.1586L125.047 32.9143L118.379 24.7957L115.588 16.261L110.87 8.81218L105.897 2.82471Z" fill="#ACFF97"/>
<path d="M128 0.246887L125.351 10.1719L118.055 16.1086L113.285 23.5067L111.895 31.1483L119.212 31.534L128 31.7471L136.788 31.5137L146.856 32.7416L139.884 25.1406L138.331 15.8955L134.079 8.28431L128 0.246887Z" fill="#ACFF97"/>
<path d="M148.885 3.42328L145.881 9.96891L139.071 16.1796L133.926 23.3646L130.364 32.5488L140.096 33.6448L148.885 32.4676L157.673 30.0726L166.462 32.0008L160.363 25.374L158.059 16.5653L154.02 8.69023L148.885 3.42328Z" fill="#ACFF97"/>
<path d="M170.997 0.11499L165.781 8.70042L161.012 16.0883L157.368 24.1258L152.923 32.285L162.209 31.0875L170.987 31.7573L179.776 30.0726L189.954 32.8025L184.637 24.1258L180.77 16.2203L174.488 9.6442L170.997 0.11499Z" fill="#ACFF97"/>
</svg>
