<svg width="57" height="54" viewBox="0 0 57 54" fill="none" xmlns="http://www.w3.org/2000/svg">
<path d="M4.54672 6.68628C4.82072 6.64568 6.00808 6.62539 8.11891 6.62539V6.50361C17.5669 7.16324 17.3843 7.00087 23.4225 7.68081C24.965 7.83303 26.467 9.89313 26.2336 11.6691C26.1524 12.6433 25.7058 14.541 24.8838 17.3622C24.5489 18.2959 23.4428 21.6042 23.1789 22.6393C22.6208 24.4559 22.9049 25.4707 24.4678 25.8665C25.5638 26.1405 27.8674 26.6682 31.3889 27.4496C32.5255 27.683 32.8908 28.3833 32.5052 29.5605C32.2109 30.4535 30.922 35.0202 30.5669 35.893C29.7043 37.9632 28.3951 38.9374 26.6395 38.8258C26.4467 38.8258 26.3046 38.8461 26.2336 38.8867C25.7667 39.1201 25.3101 39.2419 24.8838 39.2419C23.7675 39.2419 23.5341 39.1506 22.773 38.5721C21.7379 37.7805 22.0322 37.9429 21.0681 36.8976C19.9315 35.69 19.2718 34.9796 19.079 34.7868C18.186 33.9749 17.09 34.0866 16.268 34.9086C15.446 35.7306 14.6442 36.7048 13.9846 37.7197C13.7918 37.9937 12.8277 39.5768 11.1126 42.469C10.0369 44.2247 7.29691 45.3511 4.3945 44.4581C1.35003 43.5245 0.396087 40.7134 0.791869 36.6033C0.873055 35.8625 1.31958 35.1927 2.14159 34.6143C5.40933 32.1584 10.8894 28.9516 13.3453 26.0796C14.3601 24.8923 16.0853 21.8478 14.5732 20.1226C14.0252 19.4934 13.1829 19.2194 12.0564 19.3006C8.53499 19.5746 5.76451 18.8337 3.72471 17.0679C3.02449 16.4388 2.649 15.6979 2.60841 14.8353C2.52722 13.9727 2.58811 12.1765 2.78093 9.43646C2.78093 9.05082 3.35938 8.41148 3.45072 8.11718C3.51161 7.94466 3.45071 7.68081 3.24775 7.32562C3.59279 7.09221 4.03931 6.67613 4.53658 6.67613L4.54672 6.68628ZM54.7502 8.38104C55.1256 8.38104 55.7345 8.95949 55.8056 9.26393C55.8868 12.4302 55.8665 14.7541 55.7447 16.2459C55.3794 18.8337 51.8985 18.8845 49.5847 19.5543C48.6206 19.8384 47.9914 19.9399 47.6159 20.9649C47.4434 21.452 47.3521 21.8985 47.3521 22.2842C47.3927 23.847 47.5652 26.4652 47.8798 30.1389C47.961 31.1131 48.4278 31.6408 49.2904 31.722C50.3154 31.854 53.7759 32.4121 54.8618 32.4832C56.1506 32.6354 56.7392 33.3052 56.6174 34.4722C56.6174 36.6439 56.2318 38.978 55.6838 40.5104C55.1561 41.5658 53.3598 42.0834 52.2841 42.6213C52.0203 42.7836 50.904 42.8648 50.5792 42.9765C49.2092 43.4027 48.5902 44.4074 48.7018 45.9702C48.8236 47.9998 48.7018 49.3496 48.3162 50.0193C47.8595 50.8414 45.4544 52.12 43.6784 52.4854C42.9883 52.6274 40.3802 53.0232 39.7206 53.1349C38.8174 53.2871 38.31 52.8203 38.1983 51.7243C38.0664 50.4963 37.0211 41.9312 36.9095 40.5206C36.0977 28.6573 35.9454 24.9531 36.26 10.9688C36.3006 9.28423 36.392 7.17339 36.5543 4.63633C36.6761 2.87053 38.1476 1.83541 38.8986 0.708953C38.9392 0.66836 39.1523 0.648064 39.5481 0.648064C42.7955 0.566878 44.5106 0.526284 44.7034 0.526284C46.3372 0.282725 46.6924 0.698804 46.6924 2.28193C46.7736 3.96654 46.7939 5.50908 46.7533 6.90954C46.6823 7.89392 47.0172 8.34044 47.9813 8.25926H51.2693V8.32015C53.299 8.32015 54.4559 8.34044 54.7299 8.38104H54.7502Z" fill="#FFFFF0"/>
</svg>
