<svg width="12" height="23" viewBox="0 0 12 23" fill="none" xmlns="http://www.w3.org/2000/svg">
<path d="M11.6775 1.9392C11.7805 1.82947 11.8611 1.70039 11.9145 1.55934C11.968 1.41828 11.9933 1.26801 11.9891 1.1171C11.9848 0.966195 11.9511 0.817605 11.8898 0.679817C11.8285 0.542029 11.7409 0.417742 11.6318 0.314052C11.5228 0.210362 11.3946 0.1293 11.2545 0.0754937C11.1143 0.0216874 10.9651 -0.00380926 10.8151 0.000459732C10.6652 0.00472872 10.5176 0.0386796 10.3807 0.100374C10.2438 0.162068 10.1204 0.250298 10.0174 0.360025L0.312101 10.704C0.111675 10.9173 0 11.1999 0 11.4935C0 11.7872 0.111675 12.0697 0.312101 12.2831L10.0174 22.6282C10.1197 22.7403 10.2431 22.8309 10.3805 22.8946C10.5179 22.9583 10.6665 22.9939 10.8177 22.9993C10.9688 23.0047 11.1196 22.9798 11.2611 22.9261C11.4026 22.8723 11.5321 22.7909 11.6421 22.6863C11.7521 22.5818 11.8403 22.4563 11.9017 22.3171C11.9631 22.178 11.9964 22.0279 11.9997 21.8757C12.003 21.7235 11.9762 21.5721 11.9209 21.4304C11.8656 21.2887 11.7829 21.1594 11.6775 21.0502L2.71215 11.4935L11.6775 1.9392Z" fill="#329257"/>
</svg>
