<svg width="18" height="17" viewBox="0 0 18 17" fill="none" xmlns="http://www.w3.org/2000/svg">
<path fill-rule="evenodd" clip-rule="evenodd" d="M0 3.56486C0 2.85762 0.284464 2.17934 0.790812 1.67924C1.29716 1.17915 1.98392 0.898193 2.7 0.898193H15.3C16.0161 0.898193 16.7028 1.17915 17.2092 1.67924C17.7155 2.17934 18 2.85762 18 3.56486V14.2315C18 14.9388 17.7155 15.617 17.2092 16.1171C16.7028 16.6172 16.0161 16.8982 15.3 16.8982H2.7C1.98392 16.8982 1.29716 16.6172 0.790812 16.1171C0.284464 15.617 0 14.9388 0 14.2315V3.56486ZM2.7 2.67597C2.46131 2.67597 2.23239 2.76962 2.0636 2.93632C1.89482 3.10302 1.8 3.32911 1.8 3.56486V14.2315C1.8 14.4673 1.89482 14.6934 2.0636 14.8601C2.23239 15.0268 2.46131 15.1204 2.7 15.1204H15.3C15.5387 15.1204 15.7676 15.0268 15.9364 14.8601C16.1052 14.6934 16.2 14.4673 16.2 14.2315V3.56486C16.2 3.32911 16.1052 3.10302 15.9364 2.93632C15.7676 2.76962 15.5387 2.67597 15.3 2.67597H2.7ZM12.6 4.45375C12.6 4.218 12.6948 3.99191 12.8636 3.82521C13.0324 3.65851 13.2613 3.56486 13.5 3.56486H14.4C14.6387 3.56486 14.8676 3.65851 15.0364 3.82521C15.2052 3.99191 15.3 4.218 15.3 4.45375C15.3 4.6895 15.2052 4.91559 15.0364 5.08229C14.8676 5.24899 14.6387 5.34264 14.4 5.34264H13.5C13.2613 5.34264 13.0324 5.24899 12.8636 5.08229C12.6948 4.91559 12.6 4.6895 12.6 4.45375ZM6.3 8.89819C6.3 8.19095 6.58446 7.51267 7.09081 7.01258C7.59716 6.51248 8.28392 6.23153 9 6.23153C9.71608 6.23153 10.4028 6.51248 10.9092 7.01258C11.4155 7.51267 11.7 8.19095 11.7 8.89819C11.7 9.60544 11.4155 10.2837 10.9092 10.7838C10.4028 11.2839 9.71608 11.5649 9 11.5649C8.28392 11.5649 7.59716 11.2839 7.09081 10.7838C6.58446 10.2837 6.3 9.60544 6.3 8.89819ZM9 4.45375C7.80653 4.45375 6.66193 4.922 5.81802 5.7555C4.97411 6.58899 4.5 7.71945 4.5 8.89819C4.5 10.0769 4.97411 11.2074 5.81802 12.0409C6.66193 12.8744 7.80653 13.3426 9 13.3426C10.1935 13.3426 11.3381 12.8744 12.182 12.0409C13.0259 11.2074 13.5 10.0769 13.5 8.89819C13.5 7.71945 13.0259 6.58899 12.182 5.7555C11.3381 4.922 10.1935 4.45375 9 4.45375Z" fill="#329257"/>
</svg>
