<svg width="47" height="47" viewBox="0 0 47 47" fill="none" xmlns="http://www.w3.org/2000/svg">
<g filter="url(#filter0_d_394_8391)">
<path d="M23.5 23.37L29.445 29.315C29.8208 29.6908 30.2992 29.8787 30.88 29.8787C31.4608 29.8787 31.9391 29.6908 32.315 29.315C32.6908 28.9392 32.8787 28.4608 32.8787 27.88C32.8787 27.2992 32.6908 26.8208 32.315 26.445L26.37 20.5L32.315 14.555C32.6908 14.1792 32.8787 13.7008 32.8787 13.12C32.8787 12.5392 32.6908 12.0608 32.315 11.685C31.9391 11.3092 31.4608 11.1212 30.88 11.1212C30.2992 11.1212 29.8208 11.3092 29.445 11.685L23.5 17.63L17.555 11.685C17.1792 11.3092 16.7008 11.1212 16.12 11.1212C15.5392 11.1212 15.0608 11.3092 14.685 11.685C14.3092 12.0608 14.1212 12.5392 14.1212 13.12C14.1212 13.7008 14.3092 14.1792 14.685 14.555L20.63 20.5L14.685 26.445C14.3092 26.8208 14.1212 27.2992 14.1212 27.88C14.1212 28.4608 14.3092 28.9392 14.685 29.315C15.0608 29.6908 15.5392 29.8787 16.12 29.8787C16.7008 29.8787 17.1792 29.6908 17.555 29.315L23.5 23.37ZM23.5 41C20.6642 41 17.9992 40.4615 15.505 39.3846C13.0108 38.3077 10.8412 36.8474 8.99625 35.0037C7.15125 33.1601 5.69097 30.9905 4.6154 28.495C3.53984 25.9995 3.00137 23.3345 3 20.5C2.99864 17.6655 3.5371 15.0005 4.6154 12.505C5.6937 10.0095 7.15398 7.83988 8.99625 5.99625C10.8385 4.15262 13.0081 2.69233 15.505 1.6154C18.0019 0.538467 20.6669 0 23.5 0C26.3331 0 28.9981 0.538467 31.495 1.6154C33.9919 2.69233 36.1615 4.15262 38.0037 5.99625C39.846 7.83988 41.307 10.0095 42.3866 12.505C43.4663 15.0005 44.0041 17.6655 44 20.5C43.9959 23.3345 43.4574 25.9995 42.3846 28.495C41.3117 30.9905 39.8515 33.1601 38.0037 35.0037C36.156 36.8474 33.9864 38.3083 31.495 39.3866C29.0035 40.4649 26.3386 41.0027 23.5 41Z" fill="white"/>
</g>
<defs>
<filter id="filter0_d_394_8391" x="0" y="0" width="47" height="47" filterUnits="userSpaceOnUse" color-interpolation-filters="sRGB">
<feFlood flood-opacity="0" result="BackgroundImageFix"/>
<feColorMatrix in="SourceAlpha" type="matrix" values="0 0 0 0 0 0 0 0 0 0 0 0 0 0 0 0 0 0 127 0" result="hardAlpha"/>
<feOffset dy="3"/>
<feGaussianBlur stdDeviation="1.5"/>
<feComposite in2="hardAlpha" operator="out"/>
<feColorMatrix type="matrix" values="0 0 0 0 0.336276 0 0 0 0 0.477565 0 0 0 0 0.235356 0 0 0 0.6 0"/>
<feBlend mode="normal" in2="BackgroundImageFix" result="effect1_dropShadow_394_8391"/>
<feBlend mode="normal" in="SourceGraphic" in2="effect1_dropShadow_394_8391" result="shape"/>
</filter>
</defs>
</svg>
