<svg width="31" height="30" viewBox="0 0 31 30" fill="none" xmlns="http://www.w3.org/2000/svg">
<path d="M15.5 0C7.21578 0 0.5 6.71578 0.5 15C0.5 23.2847 7.21578 30 15.5 30C23.7847 30 30.5 23.2847 30.5 15C30.5 6.71578 23.7847 0 15.5 0ZM15.5 28.1545C8.26297 28.1545 2.375 22.237 2.375 14.9999C2.375 7.76291 8.26297 1.87494 15.5 1.87494C22.737 1.87494 28.625 7.76294 28.625 14.9999C28.625 22.2369 22.737 28.1545 15.5 28.1545ZM21.4864 9.51141L12.6856 18.3675L8.72231 14.4042C8.35622 14.0381 7.76278 14.0381 7.39622 14.4042C7.03013 14.7703 7.03013 15.3637 7.39622 15.7298L12.0364 20.3705C12.4025 20.7361 12.9959 20.7361 13.3625 20.3705C13.4047 20.3283 13.4408 20.2823 13.4736 20.2345L22.813 10.8375C23.1786 10.4714 23.1786 9.87794 22.813 9.51141C22.4464 9.14531 21.853 9.14531 21.4864 9.51141Z" fill="#329257"/>
</svg>
