<svg width="15" height="8" viewBox="0 0 15 8" fill="none" xmlns="http://www.w3.org/2000/svg">
<path d="M13.8576 0.464461C13.6701 0.27699 13.4158 0.171674 13.1506 0.171674C12.8854 0.171674 12.6311 0.27699 12.4436 0.464461L7.4936 5.41446L2.5436 0.464461C2.355 0.282303 2.1024 0.181509 1.8402 0.183787C1.57801 0.186065 1.32719 0.291234 1.14178 0.476642C0.956377 0.66205 0.851209 0.912863 0.84893 1.17506C0.846652 1.43726 0.947446 1.68986 1.1296 1.87846L6.7866 7.53546C6.97413 7.72293 7.22844 7.82825 7.4936 7.82825C7.75877 7.82825 8.01308 7.72293 8.2006 7.53546L13.8576 1.87846C14.0451 1.69093 14.1504 1.43663 14.1504 1.17146C14.1504 0.906296 14.0451 0.651989 13.8576 0.464461Z" fill="white"/>
</svg>
