<svg width="19" height="17" viewBox="0 0 19 17" fill="none" xmlns="http://www.w3.org/2000/svg">
<path d="M16.2977 2.74066C16.775 2.74066 17.2329 2.9303 17.5704 3.26787C17.908 3.60543 18.0977 4.06327 18.0977 4.54066V14.7404C18.0977 15.2178 17.908 15.6756 17.5704 16.0132C17.2329 16.3508 16.775 16.5404 16.2977 16.5404H4.59766C4.12027 16.5404 3.66243 16.3508 3.32486 16.0132C2.9873 15.6756 2.79766 15.2178 2.79766 14.7404V4.54066C2.79766 4.06327 2.9873 3.60543 3.32486 3.26787C3.66243 2.9303 4.12027 2.74066 4.59766 2.74066H16.2977ZM8.85646 9.89028L4.72006 14.0267L4.66066 14.0807L4.59766 14.1293V14.7413H16.2977V14.1293L16.2347 14.0816L16.1753 14.0276L14.1593 12.0116L13.8416 12.3302L13.8911 12.3797C14.0525 12.5416 14.1462 12.759 14.1532 12.9875C14.1601 13.2161 14.0799 13.4387 13.9286 13.6102C13.7774 13.7817 13.5666 13.8893 13.3389 13.9109C13.1113 13.9326 12.8839 13.8669 12.7031 13.727L12.6185 13.6523L8.85646 9.89028ZM13.5977 0.0406495C14.0518 0.0405058 14.4892 0.212016 14.8221 0.520798C15.1551 0.82958 15.3591 1.25281 15.3932 1.70565L15.3977 1.84065H2.79766C2.57722 1.84068 2.36445 1.92162 2.19972 2.0681C2.03499 2.21458 1.92975 2.41643 1.90396 2.63536L1.89766 2.74066V13.5407C1.44354 13.5408 1.00615 13.3693 0.673163 13.0605C0.34018 12.7518 0.136215 12.3285 0.102156 11.8757L0.0976563 11.7407V2.74066C0.0976179 2.05197 0.360749 1.38929 0.833211 0.888217C1.30567 0.387144 1.95175 0.0855529 2.63926 0.0451496L2.79766 0.0406495H13.5977ZM16.2977 4.54066H4.59766V11.6039L8.06086 8.14067C8.16533 8.03618 8.28936 7.95328 8.42587 7.89673C8.56238 7.84017 8.70869 7.81106 8.85646 7.81106C9.00422 7.81106 9.15053 7.84017 9.28704 7.89673C9.42355 7.95328 9.54759 8.03618 9.65206 8.14067L12.569 11.0567L13.3646 10.262C13.469 10.1575 13.5931 10.0746 13.7296 10.018C13.8661 9.96148 14.0124 9.93237 14.1602 9.93237C14.3079 9.93237 14.4542 9.96148 14.5907 10.018C14.7273 10.0746 14.8513 10.1575 14.9558 10.262L16.2977 11.6039V4.54066ZM13.1477 5.89067C13.3249 5.89067 13.5005 5.92559 13.6643 5.99343C13.8281 6.06127 13.9769 6.16071 14.1022 6.28607C14.2276 6.41143 14.327 6.56026 14.3949 6.72405C14.4627 6.88784 14.4977 7.06339 14.4977 7.24067C14.4977 7.41796 14.4627 7.5935 14.3949 7.75729C14.327 7.92108 14.2276 8.06991 14.1022 8.19527C13.9769 8.32063 13.8281 8.42007 13.6643 8.48791C13.5005 8.55576 13.3249 8.59067 13.1477 8.59067C12.7896 8.59067 12.4462 8.44844 12.1931 8.19527C11.9399 7.94209 11.7977 7.59871 11.7977 7.24067C11.7977 6.88263 11.9399 6.53925 12.1931 6.28607C12.4462 6.0329 12.7896 5.89067 13.1477 5.89067Z" fill="#329257"/>
</svg>
