<svg width="30" height="30" viewBox="0 0 30 30" fill="none" xmlns="http://www.w3.org/2000/svg">
<path d="M18.5 8.29167H18.5146M14.8542 27.25H5.375C4.21468 27.25 3.10188 26.7891 2.28141 25.9686C1.46094 25.1481 1 24.0353 1 22.875V5.375C1 4.21468 1.46094 3.10188 2.28141 2.28141C3.10188 1.46094 4.21468 1 5.375 1H22.875C24.0353 1 25.1481 1.46094 25.9686 2.28141C26.7891 3.10188 27.25 4.21468 27.25 5.375V14.8542" stroke="#22672D" stroke-width="2" stroke-linecap="round" stroke-linejoin="round"/>
<path d="M1 19.9583L8.29167 12.6667C9.645 11.3644 11.3133 11.3644 12.6667 12.6667L17.7708 17.7708" stroke="#22672D" stroke-width="2" stroke-linecap="round" stroke-linejoin="round"/>
<path d="M17.042 17.0417L18.5003 15.5833C19.4905 14.631 20.6485 14.3744 21.7291 14.8162M24.3337 28.7083V19.9583M24.3337 19.9583L28.7087 24.3333M24.3337 19.9583L19.9587 24.3333" stroke="#22672D" stroke-width="2" stroke-linecap="round" stroke-linejoin="round"/>
</svg>
