<svg width="24" height="20" viewBox="0 0 24 20" fill="none" xmlns="http://www.w3.org/2000/svg">
<path d="M16.3111 17.0012C16.9966 17.2683 17.6292 17.4731 18.2089 17.6157L18.2165 17.6168C19.2523 17.8719 20.0742 17.9229 20.6594 17.8187C20.8229 17.789 20.9634 17.7496 21.0806 17.7004C21.3662 17.581 21.5236 17.4094 21.6061 17.2335C21.7016 17.0305 21.7461 16.7363 21.6908 16.3357C21.6475 16.0385 21.571 15.7472 21.4628 15.4671C21.3155 15.0766 21.1383 14.698 20.933 14.3347L20.9221 14.313L20.8222 14.1393C20.4881 13.5719 20.1174 13.0268 19.7126 12.5075L19.7083 12.501C18.1916 10.5348 15.9192 8.36552 13.1886 6.42645C10.2931 4.37014 7.49197 3.00324 5.32382 2.42999L5.13925 2.38222L5.1284 2.38004C4.09264 2.1249 3.26968 2.07388 2.68557 2.1781C2.49138 2.20885 2.30336 2.27043 2.1286 2.3605C1.95733 2.44781 1.81987 2.58948 1.73775 2.7633C1.61507 3.02387 1.58358 3.4234 1.71169 3.96951C1.75078 4.13961 1.8076 4.32635 1.88215 4.52973C1.98557 4.80792 2.10521 5.07981 2.24043 5.34401L2.273 5.4059L2.38809 5.62195C2.7062 6.20171 3.12202 6.82925 3.63121 7.48936L3.63447 7.4937C4.23606 8.26491 4.88244 9.00011 5.57028 9.6955L6.0393 10.1667L6.06536 9.8323C6.17393 8.43609 6.22821 7.73798 6.70266 7.48936C7.17603 7.23965 7.7558 7.60553 8.91315 8.3362L9.21281 8.52512C9.54177 8.73248 9.70572 8.83671 9.89571 8.86168C10.0846 8.88883 10.2779 8.83346 10.6633 8.7238L11.0151 8.62392C12.3733 8.23849 13.0529 8.04524 13.4166 8.40895C13.7804 8.77157 13.5871 9.45122 13.2006 10.8094L13.1007 11.1612C12.9921 11.5466 12.9368 11.7399 12.9628 11.9299C12.9889 12.1199 13.0931 12.2838 13.2994 12.6128L13.4883 12.9124C14.219 14.0698 14.5849 14.6496 14.3351 15.1218C14.0854 15.5941 13.3884 15.6506 11.9922 15.7591L11.6307 15.7874C11.2344 15.8189 11.0357 15.8341 10.862 15.9253C10.6883 16.0165 10.5602 16.1728 10.3029 16.4855L10.0683 16.771C9.16069 17.8719 8.70687 18.4235 8.19008 18.3518C7.67328 18.2812 7.43443 17.6352 6.9578 16.3454L6.83403 16.011C6.69832 15.6441 6.63101 15.4606 6.49747 15.327C6.36393 15.1946 6.18044 15.1262 5.81347 14.9905L5.48016 14.8678C4.18818 14.3901 3.54327 14.1512 3.4727 13.6344C3.40213 13.1176 3.95258 12.6638 5.05457 11.7573L5.20548 11.6324C4.93833 11.3697 4.67341 11.1048 4.41075 10.8377C3.56093 9.98472 2.77391 9.07143 2.05586 8.10495C1.79327 7.74567 1.54376 7.37702 1.30781 6.99971C1.13782 6.7234 0.977401 6.44131 0.826846 6.15394L0.721533 5.94549C0.583268 5.66712 0.460045 5.38153 0.352395 5.08996C0.262793 4.8471 0.187746 4.59912 0.127654 4.34734C-0.0634293 3.5374 -0.056915 2.75461 0.263367 2.07171C0.516999 1.53225 0.955245 1.10132 1.4989 0.856805C1.80289 0.712407 2.13729 0.616865 2.48471 0.561494C3.41842 0.413839 4.53669 0.53978 5.73856 0.856805C8.15099 1.49411 11.1312 2.96849 14.131 5.09973C17.133 7.23205 19.6464 9.65967 21.2782 11.8821C21.8189 12.6171 22.2727 13.3424 22.6147 14.0383C22.7792 14.375 22.9242 14.7208 23.049 15.0741C23.3812 16.0534 23.4833 17.0663 23.0794 17.9262C22.7841 18.5559 22.2912 18.9641 21.7005 19.2063C21.461 19.3032 21.2091 19.3756 20.9449 19.4234C20.6757 19.471 20.4029 19.4964 20.1295 19.4994C19.971 19.5016 19.8082 19.4979 19.641 19.4885C19.2976 19.4683 18.9557 19.4277 18.6172 19.3669C17.7225 19.2106 16.7421 18.9196 15.7172 18.519C15.6165 18.4809 15.5243 18.4232 15.4461 18.3493C15.3678 18.2753 15.305 18.1866 15.2612 18.0882C15.2175 17.9898 15.1937 17.8837 15.1912 17.776C15.1887 17.6683 15.2076 17.5612 15.2469 17.4609C15.2861 17.3606 15.3448 17.2691 15.4196 17.1917C15.4944 17.1142 15.5838 17.0524 15.6827 17.0097C15.7816 16.967 15.8879 16.9444 15.9956 16.9431C16.1033 16.9419 16.2102 16.962 16.31 17.0023" fill="#ADD69F"/>
</svg>
