<svg width="28" height="22" viewBox="0 0 28 22" fill="none" xmlns="http://www.w3.org/2000/svg">
<path d="M27.9826 4.05147C28.0325 4.23059 27.9695 4.42824 27.8641 4.58265L24.5017 9.53618C24.377 9.72765 24.115 9.83265 23.896 9.83265C23.8336 9.83265 23.6589 9.82029 23.5909 9.80176L20.8961 9.14706V20.8824C20.8961 21.2406 20.6403 21.5 20.2723 21.5H7.17214C6.80409 21.5 6.54832 21.2406 6.54832 20.8824V9.14706L4.12792 9.80794C3.8472 9.89441 3.60392 9.78323 3.44796 9.54235L0.110552 4.60118C0.00450379 4.44059 -0.026687 4.26147 0.0232182 4.08235C0.0668852 3.89706 0.197886 3.77353 0.366316 3.68706L7.17214 0.5H10.2912C10.6593 0.5 10.915 0.753235 10.915 1.11765C10.915 2.39 12.7179 3.29176 14.0029 3.29176C15.288 3.29176 17.1532 2.39618 17.1532 1.11765C17.1532 0.759412 17.4089 0.5 17.777 0.5H20.8961L27.6333 3.62529C27.8079 3.71176 27.9327 3.86618 27.9826 4.05147Z" fill="#329257"/>
</svg>
