<svg width="22" height="22" viewBox="0 0 22 22" fill="none" xmlns="http://www.w3.org/2000/svg">
<path d="M11 0C8.82441 0 6.69767 0.645139 4.88873 1.85383C3.07979 3.06253 1.66989 4.78049 0.83733 6.79048C0.00476611 8.80047 -0.213071 11.0122 0.211367 13.146C0.635804 15.2798 1.68345 17.2398 3.22183 18.7782C4.76021 20.3165 6.72022 21.3642 8.85401 21.7886C10.9878 22.2131 13.1995 21.9952 15.2095 21.1627C17.2195 20.3301 18.9375 18.9202 20.1462 17.1113C21.3549 15.3023 22 13.1756 22 11C22 8.08262 20.8411 5.28472 18.7782 3.22182C16.7153 1.15892 13.9174 0 11 0ZM11 20.4286C9.13521 20.4286 7.31229 19.8756 5.76177 18.8396C4.21125 17.8035 3.00277 16.331 2.28914 14.6082C1.57551 12.8853 1.3888 10.9895 1.7526 9.16058C2.1164 7.33161 3.01439 5.6516 4.333 4.33299C5.65161 3.01438 7.33162 2.1164 9.16058 1.7526C10.9895 1.38879 12.8853 1.57551 14.6082 2.28914C16.331 3.00276 17.8035 4.21125 18.8396 5.76177C19.8756 7.31229 20.4286 9.1352 20.4286 11C20.4286 13.5006 19.4352 15.8988 17.667 17.667C15.8988 19.4352 13.5006 20.4286 11 20.4286Z" fill="#ADD69F"/>
<path d="M7.46429 7.07135C7.07579 7.07135 6.69601 7.18656 6.37299 7.40239C6.04996 7.61823 5.7982 7.92501 5.64952 8.28394C5.50085 8.64286 5.46195 9.03782 5.53774 9.41885C5.61354 9.79989 5.80062 10.1499 6.07533 10.4246C6.35004 10.6993 6.70004 10.8864 7.08107 10.9622C7.46211 11.038 7.85706 10.9991 8.21599 10.8504C8.57491 10.7017 8.88169 10.45 9.09753 10.1269C9.31337 9.80391 9.42857 9.42414 9.42857 9.03564C9.43067 8.7771 9.38129 8.52073 9.28331 8.28147C9.18534 8.04221 9.04073 7.82483 8.85791 7.64201C8.67509 7.45919 8.45772 7.31458 8.21846 7.21661C7.97919 7.11864 7.72282 7.06926 7.46429 7.07135ZM14.5357 7.07135C14.1472 7.07135 13.7674 7.18656 13.4444 7.40239C13.1214 7.61823 12.8696 7.92501 12.721 8.28394C12.5723 8.64286 12.5334 9.03782 12.6092 9.41885C12.685 9.79989 12.872 10.1499 13.1468 10.4246C13.4215 10.6993 13.7715 10.8864 14.1525 10.9622C14.5335 11.038 14.9285 10.9991 15.2874 10.8504C15.6463 10.7017 15.9531 10.45 16.169 10.1269C16.3848 9.80391 16.5 9.42414 16.5 9.03564C16.5021 8.7771 16.4527 8.52073 16.3547 8.28147C16.2568 8.04221 16.1122 7.82483 15.9293 7.64201C15.7465 7.45919 15.5291 7.31458 15.2899 7.21661C15.0506 7.11864 14.7943 7.06926 14.5357 7.07135Z" fill="#ADD69F"/>
</svg>
