<svg width="13" height="13" viewBox="0 0 13 13" fill="none" xmlns="http://www.w3.org/2000/svg">
<path d="M6.5 0C5.21442 0 3.95771 0.381218 2.8888 1.09545C1.81988 1.80968 0.986755 2.82484 0.494786 4.01256C0.00281634 5.20028 -0.125905 6.50721 0.124899 7.76809C0.375702 9.02896 0.994767 10.1872 1.90381 11.0962C2.81285 12.0052 3.97104 12.6243 5.23191 12.8751C6.49279 13.1259 7.79972 12.9972 8.98744 12.5052C10.1752 12.0132 11.1903 11.1801 11.9046 10.1112C12.6188 9.04228 13 7.78558 13 6.5C13 4.77609 12.3152 3.12279 11.0962 1.90381C9.87721 0.684819 8.22391 0 6.5 0ZM4.41072 6.5C4.18115 6.5 3.95674 6.43192 3.76586 6.30438C3.57498 6.17684 3.42621 5.99556 3.33836 5.78347C3.2505 5.57138 3.22752 5.338 3.2723 5.11284C3.31709 4.88768 3.42764 4.68086 3.58997 4.51854C3.7523 4.35621 3.95912 4.24566 4.18427 4.20087C4.40943 4.15609 4.64281 4.17907 4.8549 4.26692C5.067 4.35478 5.24827 4.50355 5.37581 4.69443C5.50336 4.8853 5.57143 5.10972 5.57143 5.33928C5.57267 5.49206 5.54349 5.64355 5.4856 5.78493C5.4277 5.92631 5.34225 6.05476 5.23422 6.16279C5.12619 6.27082 4.99775 6.35627 4.85636 6.41416C4.71498 6.47206 4.56349 6.50124 4.41072 6.5ZM8.58929 6.5C8.35972 6.5 8.13531 6.43192 7.94443 6.30438C7.75355 6.17684 7.60478 5.99556 7.51693 5.78347C7.42908 5.57138 7.40609 5.338 7.45088 5.11284C7.49566 4.88768 7.60621 4.68086 7.76854 4.51854C7.93087 4.35621 8.13769 4.24566 8.36284 4.20087C8.588 4.15609 8.82138 4.17907 9.03347 4.26692C9.24557 4.35478 9.42684 4.50355 9.55439 4.69443C9.68193 4.8853 9.75 5.10972 9.75 5.33928C9.75124 5.49206 9.72206 5.64355 9.66417 5.78493C9.60627 5.92631 9.52082 6.05476 9.41279 6.16279C9.30476 6.27082 9.17632 6.35627 9.03493 6.41416C8.89355 6.47206 8.74206 6.50124 8.58929 6.5Z" fill="#ADD69F"/>
</svg>
