<svg width="24" height="21" viewBox="0 0 24 21" fill="none" xmlns="http://www.w3.org/2000/svg">
<path d="M2.25 1.125V18.75H22.875C23.1734 18.75 23.4595 18.8685 23.6705 19.0795C23.8815 19.2905 24 19.5766 24 19.875C24 20.1734 23.8815 20.4595 23.6705 20.6705C23.4595 20.8815 23.1734 21 22.875 21H1.125C0.826631 21 0.540483 20.8815 0.329505 20.6705C0.118526 20.4595 0 20.1734 0 19.875L0 1.125C0 0.826631 0.118526 0.540483 0.329505 0.329505C0.540483 0.118526 0.826631 0 1.125 0C1.42337 0 1.70952 0.118526 1.9205 0.329505C2.13147 0.540483 2.25 0.826631 2.25 1.125ZM23.67 4.92L15.795 12.795C15.5841 13.0057 15.2981 13.124 15 13.124C14.7019 13.124 14.4159 13.0057 14.205 12.795L10.5 9.09L6.42 13.17C6.20678 13.369 5.92463 13.4774 5.63304 13.4723C5.34146 13.4673 5.06322 13.3492 4.857 13.143C4.65079 12.9368 4.53272 12.6585 4.52768 12.367C4.52265 12.0754 4.63104 11.7932 4.83 11.58L9.705 6.705C9.91594 6.49432 10.2019 6.37599 10.5 6.37599C10.7981 6.37599 11.0841 6.49432 11.295 6.705L15 10.41L22.08 3.33C22.2932 3.13104 22.5754 3.02265 22.867 3.02768C23.1585 3.03272 23.4368 3.15079 23.643 3.357C23.8492 3.56322 23.9673 3.84146 23.9723 4.13304C23.9774 4.42463 23.869 4.70678 23.67 4.92Z" fill="#ADD69F"/>
</svg>
