<svg width="23" height="24" viewBox="0 0 23 24" fill="none" xmlns="http://www.w3.org/2000/svg">
<path d="M22 20.2267V12.3715C22 11.7386 21.8712 11.1122 21.6215 10.5306C21.3718 9.94892 21.0064 9.42416 20.5475 8.9882L13.1077 1.9217C12.674 1.50973 12.0987 1.28003 11.5006 1.28003C10.9024 1.28003 10.3271 1.50973 9.8935 1.9217L2.4525 8.9882C1.99359 9.42416 1.62818 9.94892 1.37847 10.5306C1.12877 11.1122 0.999999 11.7386 1 12.3715V20.2267C1 20.8455 1.24583 21.439 1.68342 21.8766C2.121 22.3142 2.71449 22.56 3.33333 22.56H19.6667C20.2855 22.56 20.879 22.3142 21.3166 21.8766C21.7542 21.439 22 20.8455 22 20.2267Z" stroke="#ADD69F" stroke-width="2" stroke-linecap="round" stroke-linejoin="round"/>
</svg>
