<svg width="23" height="24" viewBox="0 0 23 24" fill="none" xmlns="http://www.w3.org/2000/svg">
<path d="M22 19.9467V12.0915C22 11.4585 21.8712 10.8322 21.6215 10.2505C21.3718 9.66889 21.0064 9.14413 20.5475 8.70817L13.1077 1.64167C12.674 1.2297 12.0987 1 11.5006 1C10.9024 1 10.3271 1.2297 9.8935 1.64167L2.4525 8.70817C1.99359 9.14413 1.62818 9.66889 1.37847 10.2505C1.12877 10.8322 0.999999 11.4585 1 12.0915V19.9467C1 20.5655 1.24583 21.159 1.68342 21.5966C2.121 22.0342 2.71449 22.28 3.33333 22.28H19.6667C20.2855 22.28 20.879 22.0342 21.3166 21.5966C21.7542 21.159 22 20.5655 22 19.9467Z" stroke="#329257" stroke-width="2" stroke-linecap="round" stroke-linejoin="round"/>
</svg>
