<svg width="17" height="8" viewBox="0 0 17 8" fill="none" xmlns="http://www.w3.org/2000/svg">
<path d="M14.6652 0.214986C14.7415 0.146313 14.8313 0.0926256 14.9294 0.0569897C15.0275 0.0213542 15.1321 0.00446748 15.237 0.00729465C15.342 0.0101218 15.4454 0.0326075 15.5412 0.0734677C15.6371 0.114328 15.7236 0.172762 15.7957 0.245434C15.8678 0.318106 15.9242 0.403594 15.9616 0.497014C15.9991 0.590435 16.0168 0.689959 16.0138 0.789906C16.0109 0.889853 15.9873 0.988264 15.9443 1.07952C15.9014 1.17078 15.84 1.25309 15.7637 1.32177L8.56793 7.79193C8.41948 7.92555 8.22294 8 8.01865 8C7.81436 8 7.61782 7.92555 7.46938 7.79193L0.2728 1.32177C0.194797 1.25355 0.131807 1.17125 0.087494 1.07966C0.0431805 0.988064 0.0184251 0.889002 0.0146638 0.788224C0.0109025 0.687445 0.0282136 0.58696 0.0655881 0.492605C0.102962 0.398249 0.159656 0.311904 0.232376 0.238585C0.305098 0.165267 0.392396 0.106435 0.489201 0.0655087C0.586005 0.0245817 0.690387 0.0023759 0.796282 0.00018054C0.902177 -0.00201529 1.00747 0.0158427 1.10606 0.0527185C1.20464 0.0895937 1.29455 0.144751 1.37055 0.214986L8.01865 6.1919L14.6652 0.214986Z" fill="#329257"/>
</svg>
