<svg width="58" height="58" viewBox="0 0 58 58" fill="none" xmlns="http://www.w3.org/2000/svg">
<g filter="url(#filter0_d_422_3602)">
<rect x="4" width="50" height="50" rx="25" fill="#FCFFF6" shape-rendering="crispEdges"/>
<path d="M37.5 34.0461C36.9995 32.6425 35.8939 31.4027 34.3572 30.5183C32.8204 29.6339 30.9372 29.1543 29 29.1543C27.0628 29.1543 25.1796 29.6339 23.6428 30.5183C22.1061 31.4027 21.0005 32.6425 20.5 34.0461" stroke="#6CCA90" stroke-width="2.3" stroke-linecap="round"/>
<path d="M29.0003 24.754C31.4304 24.754 33.4004 22.784 33.4004 20.3539C33.4004 17.9237 31.4304 15.9537 29.0003 15.9537C26.5701 15.9537 24.6001 17.9237 24.6001 20.3539C24.6001 22.784 26.5701 24.754 29.0003 24.754Z" stroke="#6CCA90" stroke-width="2.3" stroke-linecap="round"/>
</g>
<defs>
<filter id="filter0_d_422_3602" x="0" y="0" width="58" height="58" filterUnits="userSpaceOnUse" color-interpolation-filters="sRGB">
<feFlood flood-opacity="0" result="BackgroundImageFix"/>
<feColorMatrix in="SourceAlpha" type="matrix" values="0 0 0 0 0 0 0 0 0 0 0 0 0 0 0 0 0 0 127 0" result="hardAlpha"/>
<feOffset dy="4"/>
<feGaussianBlur stdDeviation="2"/>
<feComposite in2="hardAlpha" operator="out"/>
<feColorMatrix type="matrix" values="0 0 0 0 0.336276 0 0 0 0 0.477565 0 0 0 0 0.235356 0 0 0 0.3 0"/>
<feBlend mode="normal" in2="BackgroundImageFix" result="effect1_dropShadow_422_3602"/>
<feBlend mode="normal" in="SourceGraphic" in2="effect1_dropShadow_422_3602" result="shape"/>
</filter>
</defs>
</svg>
