<svg width="85" height="75" viewBox="0 0 85 75" fill="none" xmlns="http://www.w3.org/2000/svg">
<path d="M46.002 62.1556C45.0604 65.5873 45.1336 68.3409 45.322 70.0619C45.6149 72.7008 46.2426 73.3892 46.5669 73.6708C48.1885 75.1311 51.3898 74.7765 53.1056 73.2641C55.2502 71.3866 55.5432 67.3187 53.1056 63.908C50.7412 63.3238 48.3663 62.7397 46.002 62.1556Z" fill="#FFFFF0"/>
<path d="M29.7442 60.7162C28.8026 64.1478 28.8758 66.9014 29.0641 68.6225C29.3571 71.2614 29.9848 71.9498 30.3091 72.2314C31.9307 73.6916 35.132 73.337 36.8477 71.8246C38.9924 69.9471 39.2853 65.8793 36.8477 62.4685C34.4833 61.8844 32.1085 61.3003 29.7442 60.7162Z" fill="#FFFFF0"/>
<path d="M9.95043 30.7392C9.61566 30.8122 9.12394 30.9374 8.56946 31.146C5.40999 32.3142 2.28192 35.1826 1.26712 39.1044C0.932345 40.3873 0.231403 43.1097 1.75883 45.5087C1.95761 45.8216 3.47456 48.1476 5.67155 48.1267C7.92084 48.1059 10.2957 45.6026 10.62 41.9102C10.4003 38.1865 10.1806 34.4524 9.96091 30.7288L9.95043 30.7392Z" fill="#FFFFF0"/>
<g filter="url(#filter0_d_419_3614)">
<path d="M29.0015 3.78693C13.3506 11.2551 5.8076 28.9138 7.00025 43.0888C7.31411 46.8125 8.13013 54.1659 13.9992 59.6106C24.1995 69.071 40.2689 63.8245 41.1163 63.5325C54.6225 69.2796 68.4845 67.5899 75.9961 59.6106C82.315 52.8934 82.0744 43.9024 82.0012 39.3339C81.7501 24.4183 72.4809 6.64487 55.3339 1.45051C42.8111 -2.34617 31.9936 2.34753 29.0015 3.7765V3.78693Z" fill="#FFE9B8"/>
</g>
<path d="M78.1408 33.4824C81.9071 33.4824 84.0099 37.4981 84.4598 38.3639C86.3011 41.8789 86.5103 47.3132 83.717 49.0551C82.2837 49.9521 80.5889 49.5453 80.1286 49.4306C77.5027 48.8047 75.4521 46.3327 74.9081 43.0784C72.889 41.5451 72.052 39.0523 72.7635 36.9558C73.6213 34.4316 76.2891 33.4824 78.1408 33.4824Z" fill="#FFFFF0"/>
<path d="M56.8823 21.0701C58.4077 21.0701 59.6442 19.8373 59.6442 18.3165C59.6442 16.7957 58.4077 15.5629 56.8823 15.5629C55.3569 15.5629 54.1204 16.7957 54.1204 18.3165C54.1204 19.8373 55.3569 21.0701 56.8823 21.0701Z" fill="#C27E5A"/>
<path d="M28.332 20.267C29.8574 20.267 31.0939 19.0342 31.0939 17.5134C31.0939 15.9926 29.8574 14.7598 28.332 14.7598C26.8066 14.7598 25.5701 15.9926 25.5701 17.5134C25.5701 19.0342 26.8066 20.267 28.332 20.267Z" fill="#C27E5A"/>
<path d="M38.0823 24.6791H46.8074" stroke="#C27E5A" stroke-width="1.8" stroke-miterlimit="10" stroke-linecap="round"/>
<defs>
<filter id="filter0_d_419_3614" x="3.04793" y="-2.55" width="85.3455" height="77.1329" filterUnits="userSpaceOnUse" color-interpolation-filters="sRGB">
<feFlood flood-opacity="0" result="BackgroundImageFix"/>
<feColorMatrix in="SourceAlpha" type="matrix" values="0 0 0 0 0 0 0 0 0 0 0 0 0 0 0 0 0 0 127 0" result="hardAlpha"/>
<feOffset dx="1.27" dy="2.55"/>
<feGaussianBlur stdDeviation="2.55"/>
<feColorMatrix type="matrix" values="0 0 0 0 0.619608 0 0 0 0 0.223529 0 0 0 0 0.223529 0 0 0 0.2 0"/>
<feBlend mode="normal" in2="BackgroundImageFix" result="effect1_dropShadow_419_3614"/>
<feBlend mode="normal" in="SourceGraphic" in2="effect1_dropShadow_419_3614" result="shape"/>
</filter>
</defs>
</svg>
