<svg width="92" height="94" viewBox="0 0 92 94" fill="none" xmlns="http://www.w3.org/2000/svg">
<g filter="url(#filter0_d_419_3632)">
<path d="M79.6109 22.5762L48.1097 4.73471C43.4928 2.1198 37.6238 3.73153 35.001 8.33461L9.80411 52.5561C7.18133 57.1591 8.79789 63.0105 13.4148 65.6254L44.9161 83.4669C49.533 86.0818 55.4019 84.47 58.0247 79.867L83.2216 35.6455C85.8444 31.0424 84.2278 25.1911 79.6109 22.5762Z" fill="#FFE2EC"/>
</g>
<g filter="url(#filter1_d_419_3632)">
<path d="M76.1927 25.7066L46.1651 8.69974C43.2714 7.0608 39.5929 8.07099 37.949 10.9561L36.8587 12.8697C35.2148 15.7547 36.228 19.4221 39.1218 21.0611L69.1494 38.0679C72.0431 39.7069 75.7216 38.6967 77.3655 35.8116L78.4558 33.898C80.0997 31.013 79.0865 27.3455 76.1927 25.7066Z" fill="white"/>
</g>
<g filter="url(#filter2_d_419_3632)">
<path d="M36.4273 13.7891L81.2186 39.1577L57.5306 80.7309C55.1845 84.8483 49.9211 86.2938 45.7913 83.9548L8.48646 62.8263C4.35664 60.4873 2.90686 55.2396 5.25292 51.1222L24.688 17.0129C27.0341 12.8955 32.2975 11.45 36.4273 13.7891Z" fill="#FFE2EC"/>
</g>
<defs>
<filter id="filter0_d_419_3632" x="4.46761" y="0.762056" width="86.8104" height="92.1174" filterUnits="userSpaceOnUse" color-interpolation-filters="sRGB">
<feFlood flood-opacity="0" result="BackgroundImageFix"/>
<feColorMatrix in="SourceAlpha" type="matrix" values="0 0 0 0 0 0 0 0 0 0 0 0 0 0 0 0 0 0 127 0" result="hardAlpha"/>
<feOffset dx="1.36" dy="2.72"/>
<feGaussianBlur stdDeviation="2.72"/>
<feColorMatrix type="matrix" values="0 0 0 0 0.619608 0 0 0 0 0.223529 0 0 0 0 0.223529 0 0 0 0.1 0"/>
<feBlend mode="normal" in2="BackgroundImageFix" result="effect1_dropShadow_419_3632"/>
<feBlend mode="normal" in="SourceGraphic" in2="effect1_dropShadow_419_3632" result="shape"/>
</filter>
<filter id="filter1_d_419_3632" x="31.9913" y="5.19467" width="54.0519" height="41.8184" filterUnits="userSpaceOnUse" color-interpolation-filters="sRGB">
<feFlood flood-opacity="0" result="BackgroundImageFix"/>
<feColorMatrix in="SourceAlpha" type="matrix" values="0 0 0 0 0 0 0 0 0 0 0 0 0 0 0 0 0 0 127 0" result="hardAlpha"/>
<feOffset dx="1.36" dy="2.72"/>
<feGaussianBlur stdDeviation="2.72"/>
<feColorMatrix type="matrix" values="0 0 0 0 0.619608 0 0 0 0 0.223529 0 0 0 0 0.223529 0 0 0 0.2 0"/>
<feBlend mode="normal" in2="BackgroundImageFix" result="effect1_dropShadow_419_3632"/>
<feBlend mode="normal" in="SourceGraphic" in2="effect1_dropShadow_419_3632" result="shape"/>
</filter>
<filter id="filter2_d_419_3632" x="0.0501269" y="9.94956" width="87.9684" height="83.2848" filterUnits="userSpaceOnUse" color-interpolation-filters="sRGB">
<feFlood flood-opacity="0" result="BackgroundImageFix"/>
<feColorMatrix in="SourceAlpha" type="matrix" values="0 0 0 0 0 0 0 0 0 0 0 0 0 0 0 0 0 0 127 0" result="hardAlpha"/>
<feOffset dx="1.36" dy="2.72"/>
<feGaussianBlur stdDeviation="2.72"/>
<feColorMatrix type="matrix" values="0 0 0 0 0.619608 0 0 0 0 0.223529 0 0 0 0 0.223529 0 0 0 0.1 0"/>
<feBlend mode="normal" in2="BackgroundImageFix" result="effect1_dropShadow_419_3632"/>
<feBlend mode="normal" in="SourceGraphic" in2="effect1_dropShadow_419_3632" result="shape"/>
</filter>
</defs>
</svg>
