<svg width="78" height="89" viewBox="0 0 78 89" fill="none" xmlns="http://www.w3.org/2000/svg">
<path d="M47.3578 16.1361C44.282 17.1896 40.4321 15.5728 38.5071 12.0056C39.1766 8.25068 42.085 5.57005 45.2654 5.44488C47.7763 5.34058 51.0927 6.81126 51.6681 9.74222C52.2435 12.6627 49.7431 15.3121 47.3578 16.1256V16.1361Z" fill="#DDFF68"/>
<path d="M29.4158 8.13596C30.6293 11.1399 34.3851 12.9757 38.3502 12.0891C40.7564 9.11643 40.8715 5.17372 38.8837 2.70171C37.3144 0.740786 34.019 -0.782061 31.4244 0.709491C28.8299 2.20104 28.4742 5.80998 29.4262 8.1464L29.4158 8.13596Z" fill="#DDFF68"/>
<path d="M38.0884 9.66919C37.8687 10.2533 36.5191 14.0187 38.5697 17.3981C39.3334 18.6498 40.3168 19.453 41.0387 19.9223" stroke="#DDFF68" stroke-width="2.55" stroke-miterlimit="10"/>
<path d="M51.647 78.8335C53.0384 81.9 54.7541 83.861 55.9363 84.9979C57.7462 86.7398 58.625 86.8649 59.0226 86.8858C61.094 86.9797 63.2073 84.7893 63.5421 82.6615C63.9605 80.0017 61.7217 76.8621 57.8822 75.84C55.8003 76.8413 53.7184 77.8322 51.647 78.8335Z" fill="#FFFFF0"/>
<path d="M19.9895 75.5583C17.2066 77.4566 15.5641 79.4906 14.6539 80.8465C13.2416 82.9326 13.273 83.8088 13.3253 84.2051C13.5973 86.2495 16.1186 87.9392 18.2947 87.8975C20.9938 87.8453 23.7034 85.1021 24.0382 81.149C22.6886 79.2819 21.3391 77.4149 19.9895 75.5479V75.5583Z" fill="#FFFFF0"/>
<path d="M9.41263 46.2488C9.08832 46.2592 8.60707 46.2697 8.04214 46.2175C4.8722 45.9255 1.30471 44.0688 -0.58888 40.7311C-1.20613 39.6463 -2.52432 37.3308 -1.71876 34.7545C-1.61414 34.4207 -0.798117 31.9174 1.21056 31.4063C3.27154 30.8744 6.05439 32.585 7.2575 35.8706C7.9689 39.3335 8.69077 42.7859 9.40217 46.2488H9.41263Z" fill="#FFFFF0"/>
<g filter="url(#filter0_d_419_3666)">
<path d="M21.5379 21.6226C6.73442 28.684 -0.400558 45.3935 0.729321 58.8071C1.02225 62.3221 1.79643 69.2897 7.35166 74.4423C17.0079 83.3916 32.209 78.4267 33.0041 78.1555C45.7884 83.5898 58.8867 81.9939 66.0007 74.4423C71.9744 68.0902 71.7443 59.5789 71.6815 55.2607C71.4409 41.1484 62.6738 24.3449 46.458 19.4217C34.6152 15.8337 24.3731 20.2771 21.5484 21.6226H21.5379Z" fill="#FFE9B8"/>
</g>
<path d="M18.5667 31.3228C18.8177 30.9994 19.6338 30.0607 21.0356 29.7686C21.7052 29.633 22.2806 29.6956 22.6572 29.7686" stroke="#C27E5A" stroke-width="1.71" stroke-miterlimit="10" stroke-linecap="round"/>
<path d="M45.1294 32.1364C44.8783 31.813 44.0623 30.8743 42.6604 30.5822C41.9908 30.4466 41.4154 30.5092 41.0388 30.5822" stroke="#C27E5A" stroke-width="1.71" stroke-miterlimit="10" stroke-linecap="round"/>
<path d="M24.4253 33.0334C24.4253 33.0334 29.991 32.7204 35.6509 33.8991C37.4294 34.2641 38.8522 34.7127 39.7938 35.036C38.35 38.9787 34.657 41.3986 31.0372 41.0335C30.8384 41.0126 26.6223 40.5537 24.9589 36.9969C24.1952 35.3593 24.3103 33.7948 24.4253 33.0334Z" fill="#F6998F"/>
<path d="M62.7575 45.3101C66.0739 46.6035 69.3171 43.8081 70.018 43.2031C72.8637 40.752 74.9351 36.0374 73.0834 33.5445C72.1313 32.2616 70.4993 32.0321 70.0599 31.9695C67.5386 31.6149 64.8708 33.0752 63.2492 35.7454C60.9372 36.392 59.3365 38.3008 59.2319 40.3974C59.1064 42.9111 61.1255 44.6843 62.7575 45.3205V45.3101Z" fill="#FFFFF0"/>
<defs>
<filter id="filter0_d_419_3666" x="-3.00672" y="15.6422" width="80.7272" height="72.9587" filterUnits="userSpaceOnUse" color-interpolation-filters="sRGB">
<feFlood flood-opacity="0" result="BackgroundImageFix"/>
<feColorMatrix in="SourceAlpha" type="matrix" values="0 0 0 0 0 0 0 0 0 0 0 0 0 0 0 0 0 0 127 0" result="hardAlpha"/>
<feOffset dx="1.2" dy="2.41"/>
<feGaussianBlur stdDeviation="2.41"/>
<feColorMatrix type="matrix" values="0 0 0 0 0.619608 0 0 0 0 0.223529 0 0 0 0 0.223529 0 0 0 0.2 0"/>
<feBlend mode="normal" in2="BackgroundImageFix" result="effect1_dropShadow_419_3666"/>
<feBlend mode="normal" in="SourceGraphic" in2="effect1_dropShadow_419_3666" result="shape"/>
</filter>
</defs>
</svg>
