<svg width="56" height="56" viewBox="0 0 56 56" fill="none" xmlns="http://www.w3.org/2000/svg">
<path d="M10.5719 15.4859C7.23308 15.4859 4.40171 14.7958 2.03717 13.6085C1.32679 13.1822 1.38768 11.1323 1.15427 10.2088C1.07309 9.813 0.778786 8.01676 0.271373 4.80991C-0.114261 4.80991 0.52508 3.49064 0.565673 3.42975C0.961455 2.89189 1.93569 2.63818 2.97081 2.63818C7.01997 2.56715 20.7607 2.40477 24.8403 2.34388C28.2806 2.2627 29.3766 3.54138 30.2392 6.33215C31.1728 9.41722 31.6904 11.5281 31.7614 12.6647C31.8528 15.1104 31.8325 15.0394 31.5889 17.3532C31.3048 19.9816 30.8988 26.0096 30.8887 26.2126C30.8075 29.0439 28.6053 30.9823 25.845 31.1345C23.2673 31.2563 21.3493 30.7387 20.1011 29.6123C19.3197 28.8714 18.9137 28.2016 18.8731 27.6232C18.7919 26.446 18.66 23.1884 18.4672 17.8301C18.4672 15.7294 18.0816 15.425 16.0012 15.425C14.7732 15.425 11.881 15.4859 10.5719 15.4859ZM11.0691 47.5645C11.2213 43.972 11.3634 41.5872 11.4852 40.41C11.9926 34.9299 13.4641 32.9003 19.0457 32.9003C19.3805 32.9003 20.4157 32.9612 20.7506 32.9612C25.9871 32.9612 29.8941 32.7887 32.4819 32.4335C33.2228 32.3523 33.9331 32.3117 34.5928 32.3117C37.759 32.3117 40.5194 33.3062 42.8636 35.3054C44.0205 36.2391 44.8527 38.6949 44.8527 40.8159C44.8527 41.2422 44.8121 41.6582 44.7309 42.0439C44.1829 45.1391 43.4218 50.0204 42.4983 52.4864C42.3055 52.9533 41.8691 53.3287 41.2094 53.6027C37.7286 54.8916 33.994 55.5411 30.0058 55.5411C26.0175 55.5411 23.4804 55.4193 22.3844 55.1859C16.945 53.9782 13.7787 53.2273 12.8857 52.9532C11.7288 52.5676 11.0082 50.9439 11.0082 49.3709C11.0082 49.1274 11.0691 47.7776 11.0691 47.5544V47.5645ZM31.2946 41.1711H21.5015V47.5036C22.9121 48.1633 24.2213 48.4982 25.4289 48.4982C28.4429 48.4982 30.2189 48.417 30.7669 48.2648C32.4414 47.8487 32.6037 46.6207 32.4718 44.5099C32.4312 43.8807 32.4312 43.353 32.4718 42.9268V42.6325C32.4718 41.6481 32.2688 41.1711 31.2946 41.1711ZM48.0697 23.4624C48.0697 24.0916 47.9885 25.2384 47.8363 26.923C47.7145 27.8566 47.1766 28.3539 46.1922 28.3843C44.122 28.4249 42.3258 28.4046 40.7934 28.3234C39.1189 28.2422 37.7083 26.9331 37.6271 25.2789C37.5561 20.0019 37.6576 10.8481 37.9214 4.99258C37.9214 3.105 38.8956 2.69907 40.2352 1.99884C41.6357 1.26817 42.955 0.395419 45.0759 0.588235C46.8011 0.67957 47.887 1.09565 47.887 2.63818C47.887 4.2822 48.0189 6.35245 48.3031 8.84892C48.3843 9.31574 48.7496 9.58974 49.4194 9.67093C52.2305 9.86374 53.8136 10.0058 54.1688 10.0769C56.5841 10.6249 55.691 15.1713 54.6965 16.8254C54.4631 17.2212 53.7933 17.4851 52.7074 17.6475H48.0798V23.4523L48.0697 23.4624Z" fill="#FFFFF0"/>
</svg>
