<svg width="23" height="21" viewBox="0 0 23 21" fill="none" xmlns="http://www.w3.org/2000/svg">
<g clip-path="url(#clip0_578_4204)">
<path d="M11.5 0C5.14713 0 0 4.04361 0 9.03568C0 12.2829 2.18198 15.1319 5.45676 16.7247C5.21634 17.6152 4.58616 19.9574 4.45866 20.457C4.30203 21.0796 4.68815 21.0688 4.9395 20.9023C5.13621 20.7719 8.09043 18.7737 9.36538 17.9121C10.0575 18.0134 10.7715 18.0677 11.5 18.0677C17.8529 18.0677 23 14.0241 23 9.03206C23 4.03999 17.8529 0 11.5 0Z" fill="#371C1D"/>
<path d="M3.4787 7.37043H4.66258C4.66258 7.37043 4.66987 10.6031 4.66258 11.3561C4.66258 11.9064 5.89381 11.9136 5.89381 11.3634V7.41387C5.89381 7.41387 6.29451 7.41387 7.07769 7.41387C7.81352 7.41387 7.81352 6.26269 7.07769 6.26269C6.24715 6.26269 3.4787 6.24097 3.4787 6.24097C2.78295 6.24097 2.78659 7.37043 3.4787 7.37043Z" fill="#F8E049"/>
<mask id="mask0_578_4204" style="mask-type:luminance" maskUnits="userSpaceOnUse" x="2" y="6" width="6" height="6">
<path d="M3.4787 7.37043H4.66258C4.66258 7.37043 4.66987 10.6031 4.66258 11.3561C4.66258 11.9064 5.89381 11.9136 5.89381 11.3634V7.41387C5.89381 7.41387 6.29451 7.41387 7.07769 7.41387C7.81352 7.41387 7.81352 6.26269 7.07769 6.26269C6.24715 6.26269 3.4787 6.24097 3.4787 6.24097C2.78295 6.24097 2.78659 7.37043 3.4787 7.37043Z" fill="white"/>
</mask>
<g mask="url(#mask0_578_4204)">
<path d="M7.80986 6.24457H2.7793V11.9136H7.80986V6.24457Z" fill="#F8E049"/>
</g>
<path d="M9.14307 7.58038L9.8024 9.63296H8.4291L9.14307 7.58038ZM8.4036 6.62106C8.11219 7.25819 7.05945 10.2701 6.70975 11.0665C6.4584 11.6421 7.54757 12.1127 7.79891 11.5371L8.03569 10.7154H10.2031C10.2031 10.7154 10.1302 10.7479 10.4144 11.5045C10.6475 12.1163 11.7731 11.6928 11.54 11.081C11.2085 10.2085 10.0574 7.06633 9.84611 6.62106C9.74776 6.41472 9.4017 6.2663 9.06657 6.2663C8.78973 6.2663 8.51653 6.36766 8.4036 6.62106Z" fill="#F8E049"/>
<mask id="mask1_578_4204" style="mask-type:luminance" maskUnits="userSpaceOnUse" x="6" y="6" width="6" height="6">
<path d="M9.14307 7.58038L9.8024 9.63296H8.4291L9.14307 7.58038ZM8.4036 6.62106C8.11219 7.25819 7.05945 10.2701 6.70975 11.0665C6.4584 11.6421 7.54757 12.1127 7.79891 11.5371L8.03569 10.7154H10.2031C10.2031 10.7154 10.1302 10.7479 10.4144 11.5045C10.6475 12.1163 11.7731 11.6928 11.54 11.081C11.2085 10.2085 10.0574 7.06633 9.84611 6.62106C9.74776 6.41472 9.4017 6.2663 9.06657 6.2663C8.78973 6.2663 8.51653 6.36766 8.4036 6.62106Z" fill="white"/>
</mask>
<g mask="url(#mask1_578_4204)">
<path d="M11.7732 6.2663H6.4585V12.1127H11.7732V6.2663Z" fill="#F8E049"/>
</g>
<path d="M11.9553 6.80929C11.9553 7.83377 11.9626 11.1316 11.9626 11.1316C11.9626 11.1316 11.8679 11.7869 12.4325 11.7869C12.9971 11.7869 14.2539 11.7796 14.8076 11.7796C15.3612 11.7796 15.3612 10.6031 14.8076 10.6031C14.2539 10.6031 13.2376 10.5959 13.2376 10.5959C13.2376 10.5959 13.2412 7.54416 13.2376 6.80567C13.2376 6.44728 12.917 6.2699 12.5964 6.2699C12.2759 6.2699 11.9553 6.4509 11.9553 6.80929Z" fill="#F8E049"/>
<mask id="mask2_578_4204" style="mask-type:luminance" maskUnits="userSpaceOnUse" x="11" y="6" width="5" height="6">
<path d="M11.9553 6.80929C11.9553 7.83377 11.9626 11.1316 11.9626 11.1316C11.9626 11.1316 11.8679 11.7869 12.4325 11.7869C12.9971 11.7869 14.2539 11.7796 14.8076 11.7796C15.3612 11.7796 15.3612 10.6031 14.8076 10.6031C14.2539 10.6031 13.2376 10.5959 13.2376 10.5959C13.2376 10.5959 13.2412 7.54416 13.2376 6.80567C13.2376 6.44728 12.917 6.2699 12.5964 6.2699C12.2759 6.2699 11.9553 6.4509 11.9553 6.80929Z" fill="white"/>
</mask>
<g mask="url(#mask2_578_4204)">
<path d="M15.3649 6.2699H11.8679V11.7869H15.3649V6.2699Z" fill="#F8E049"/>
</g>
<path d="M15.5141 6.64643C15.525 7.09531 15.4995 11.1534 15.4995 11.4539C15.4995 11.9281 16.7162 11.9281 16.7162 11.4539C16.7162 10.9036 16.7162 9.85742 16.7162 9.85742L17.0732 9.57144L18.6322 11.6892C18.9491 12.1019 19.94 11.3561 19.6267 10.9434L17.9693 8.77502C17.9693 8.77502 19.0949 7.56592 19.5393 7.1279C19.7979 6.87087 18.9965 6.07084 18.7379 6.32786C18.4865 6.57402 16.7235 8.32614 16.7235 8.32614C16.7235 8.32614 16.738 7.22564 16.7235 6.61747C16.7162 6.38578 16.432 6.27356 16.1406 6.27356C15.8274 6.27356 15.5104 6.40026 15.5141 6.65005" fill="#F8E049"/>
<mask id="mask3_578_4204" style="mask-type:luminance" maskUnits="userSpaceOnUse" x="15" y="6" width="5" height="6">
<path d="M15.5141 6.64643C15.525 7.09531 15.4995 11.1534 15.4995 11.4539C15.4995 11.9281 16.7162 11.9281 16.7162 11.4539C16.7162 10.9036 16.7162 9.85742 16.7162 9.85742L17.0732 9.57144L18.6322 11.6892C18.9491 12.1019 19.94 11.3561 19.6267 10.9434L17.9693 8.77502C17.9693 8.77502 19.0949 7.56592 19.5393 7.1279C19.7979 6.87087 18.9965 6.07084 18.7379 6.32786C18.4865 6.57402 16.7235 8.32614 16.7235 8.32614C16.7235 8.32614 16.738 7.22564 16.7235 6.61747C16.7162 6.38578 16.432 6.27356 16.1406 6.27356C15.8274 6.27356 15.5104 6.40026 15.5141 6.65005" fill="white"/>
</mask>
<g mask="url(#mask3_578_4204)">
<path d="M19.94 6.0672H15.4995V12.1018H19.94V6.0672Z" fill="#F8E049"/>
</g>
</g>
<defs>
<clipPath id="clip0_578_4204">
<rect width="23" height="21" fill="white"/>
</clipPath>
</defs>
</svg>
