<svg width="85" height="74" viewBox="0 0 85 74" fill="none" xmlns="http://www.w3.org/2000/svg">
<path d="M9.90875 38.0404C9.57397 38.1134 9.10319 38.2386 8.54871 38.4368C5.44154 39.5841 2.36576 42.4108 1.36143 46.27C1.03711 47.5321 0.336168 50.2023 1.84267 52.5804C2.03099 52.8829 3.53749 55.1776 5.69263 55.1567C7.91054 55.1359 10.2435 52.6743 10.5678 49.0445C10.3481 45.373 10.1389 41.7119 9.91921 38.0404H9.90875Z" fill="#FFFFF0"/>
<g filter="url(#filter0_d_419_3623)">
<path d="M26.313 3.72431C10.9132 11.0778 3.49572 28.4549 4.66744 42.4004C4.97083 46.0614 5.7764 53.3002 11.5513 58.6614C21.5947 67.9758 37.4025 62.8127 38.2395 62.5207C51.5365 68.174 65.1682 66.5155 72.5648 58.6614C78.7896 52.0589 78.5489 43.2035 78.4652 38.708C78.2141 24.0219 69.1019 6.54053 52.2269 1.42961C39.9029 -2.30448 29.2528 2.3162 26.313 3.71388V3.72431Z" fill="#C9E9FF"/>
</g>
<path d="M20.0987 56.8882C18.6759 55.9286 16.9288 55.8452 13.445 55.6783C12.3988 55.6261 11.0283 55.6574 9.94025 56.544C9.88795 56.5857 9.8461 56.6275 9.80425 56.6692C8.26636 58.1712 8.41283 61.3212 9.79379 63.0943C11.5095 65.316 15.4955 65.8584 19.0107 63.6784C19.6488 63.8036 22.3375 64.3043 23.2163 63.063C24.2416 61.6132 22.3585 58.4111 20.0987 56.8778V56.8882Z" fill="#FFFFF0"/>
<path d="M53.1475 57.8896C51.7247 56.93 49.9776 56.8465 46.4938 56.6796C45.4476 56.6275 44.0771 56.6588 42.9891 57.5454C42.9368 57.5871 42.8949 57.6288 42.8531 57.6705C41.3152 59.1725 41.4617 62.3225 42.8426 64.0957C44.5584 66.3174 48.5443 66.8597 52.0595 64.6798C52.6977 64.8049 55.3864 65.3056 56.2652 64.0644C57.2904 62.6146 55.4073 59.4124 53.1475 57.8791V57.8896Z" fill="#FFFFF0"/>
<path d="M60.021 40.8879C63.7245 40.8879 65.7959 44.8411 66.2458 45.6859C68.0557 49.1384 68.2649 54.4892 65.5135 56.2102C64.1011 57.0864 62.4377 56.69 61.9774 56.5857C59.3933 55.9703 57.3742 53.5401 56.8406 50.3379C54.8529 48.8359 54.0264 46.3743 54.7273 44.3091C55.5643 41.8267 58.2006 40.8879 60.021 40.8879Z" fill="#FFFFF0"/>
<path d="M26.135 43.1305C26.8464 42.7445 28.0495 42.2022 29.6293 42.0666C32.0773 41.8475 33.9605 42.7133 34.7242 43.1305" stroke="#C27E5A" stroke-width="1.77" stroke-miterlimit="10" stroke-linecap="round"/>
<path d="M17.2217 37.5502C17.6506 37.6023 18.6863 37.6545 19.8058 37.0912C21.2913 36.3298 21.8563 34.9947 21.9923 34.6505" stroke="#C27E5A" stroke-width="1.77" stroke-miterlimit="10" stroke-linecap="round"/>
<path d="M43.9098 37.5502C43.4808 37.6023 42.4451 37.6545 41.3257 37.0912C39.8401 36.3298 39.2752 34.9947 39.1392 34.6505" stroke="#C27E5A" stroke-width="1.77" stroke-miterlimit="10" stroke-linecap="round"/>
<defs>
<filter id="filter0_d_419_3623" x="0.777363" y="-2.50634" width="83.9841" height="75.9028" filterUnits="userSpaceOnUse" color-interpolation-filters="sRGB">
<feFlood flood-opacity="0" result="BackgroundImageFix"/>
<feColorMatrix in="SourceAlpha" type="matrix" values="0 0 0 0 0 0 0 0 0 0 0 0 0 0 0 0 0 0 127 0" result="hardAlpha"/>
<feOffset dx="1.25" dy="2.51"/>
<feGaussianBlur stdDeviation="2.51"/>
<feColorMatrix type="matrix" values="0 0 0 0 0.619608 0 0 0 0 0.223529 0 0 0 0 0.223529 0 0 0 0.2 0"/>
<feBlend mode="normal" in2="BackgroundImageFix" result="effect1_dropShadow_419_3623"/>
<feBlend mode="normal" in="SourceGraphic" in2="effect1_dropShadow_419_3623" result="shape"/>
</filter>
</defs>
</svg>
