<svg width="29" height="27" viewBox="0 0 29 27" fill="none" xmlns="http://www.w3.org/2000/svg">
<path d="M1.11328 8.17775C1.8338 9.87251 3.0719 10.1973 6.90794 13.2113C8.76507 14.6726 10.2264 15.9716 11.2006 16.8748C14.0422 11.3745 13.8392 5.65084 10.815 2.58606C9.19129 0.942044 5.77133 -0.945532 3.17337 0.536114C0.6769 1.94672 0.0984607 5.78276 1.12343 8.17775H1.11328Z" fill="#DDFF68"/>
<path d="M24.5869 16.5502C22.8922 17.2707 21.7759 16.6415 16.925 16.1443C14.5706 15.9007 12.6221 15.8297 11.2927 15.7992C13.0687 9.87263 17.1889 5.89451 21.5019 5.78288C23.8157 5.72199 27.5807 6.74696 28.423 9.61892C29.2348 12.3691 26.9921 15.5252 24.5869 16.54V16.5502Z" fill="#DDFF68"/>
<path d="M10.6325 15.3323C10.4092 15.931 9.01894 19.7975 11.1298 23.2784C11.9112 24.5672 12.9159 25.3892 13.6668 25.8763" stroke="#DDFF68" stroke-width="2.69" stroke-miterlimit="10"/>
</svg>
