<svg width="21" height="21" viewBox="0 0 21 21" fill="none" xmlns="http://www.w3.org/2000/svg">
<path fill-rule="evenodd" clip-rule="evenodd" d="M16.1094 0.236474C16.2536 0.0850599 16.4492 0 16.6532 0C16.8572 0 17.0528 0.0850599 17.1971 0.236474L20.274 3.46715C20.3456 3.54217 20.4025 3.6313 20.4413 3.72942C20.48 3.82755 20.5 3.93274 20.5 4.03897C20.5 4.14521 20.48 4.2504 20.4413 4.34853C20.4025 4.44665 20.3456 4.53578 20.274 4.6108L14.2093 10.9785C14.0924 11.1016 13.9574 11.2042 13.8093 11.2821L7.76775 14.453C7.62347 14.5287 7.46019 14.5548 7.30101 14.5276C7.14183 14.5005 6.9948 14.4216 6.88068 14.3019C6.76657 14.1823 6.69115 14.028 6.66509 13.8609C6.63902 13.6938 6.66363 13.5224 6.73544 13.3708L9.75546 7.02573C9.82971 6.8703 9.92738 6.72848 10.0447 6.60574L16.1094 0.236474ZM16.654 1.95035L11.1309 7.7494L9.53546 11.1028L9.92623 11.5131L13.1216 9.83642L18.6432 4.03897L16.654 1.95035ZM12.8078 1.61597L11.2693 3.23131H4.96158C4.30311 3.23131 3.85387 3.23131 3.50926 3.262C3.17079 3.29107 2.99848 3.34276 2.87848 3.40738C2.58901 3.56224 2.35366 3.80935 2.20617 4.11328C2.14463 4.23928 2.0954 4.42019 2.06771 4.77557C2.03847 5.1374 2.03847 5.60908 2.03847 6.30045V16.3155C2.03847 17.0069 2.03847 17.4786 2.06771 17.8404C2.0954 18.1958 2.14463 18.3767 2.20617 18.5027C2.35366 18.8066 2.58901 19.0537 2.87848 19.2086C2.99848 19.2732 3.17079 19.3249 3.50926 19.354C3.85541 19.3847 4.30311 19.3847 4.96158 19.3847H14.5001C15.1586 19.3847 15.6078 19.3847 15.9524 19.354C16.2909 19.3249 16.4632 19.2732 16.5832 19.2086C16.8727 19.0537 17.108 18.8066 17.2555 18.5027C17.3171 18.3767 17.3663 18.1958 17.394 17.8404C17.4232 17.477 17.4232 17.0069 17.4232 16.3155V9.69265L18.9617 8.07731V16.3478C18.9617 16.9988 18.9617 17.5351 18.9278 17.9729C18.8925 18.4268 18.8171 18.8451 18.6263 19.2361C18.3313 19.8439 17.8606 20.3381 17.2817 20.6479C16.9078 20.8482 16.5109 20.9273 16.0786 20.9645C15.6632 21 15.1509 21 14.5324 21H4.93081C4.3108 21 3.80003 21 3.3831 20.9645C2.95079 20.9273 2.55232 20.8482 2.18001 20.6479C1.60107 20.3381 1.13038 19.8439 0.835387 19.2361C0.644616 18.8435 0.569231 18.4268 0.533847 17.9729C0.5 17.5367 0.5 16.9988 0.5 16.3478V6.26814C0.5 5.61716 0.5 5.08087 0.533847 4.64311C0.569231 4.1892 0.644616 3.77083 0.835387 3.37992C1.13038 2.77205 1.60107 2.27784 2.18001 1.96811C2.55386 1.76781 2.95079 1.68866 3.3831 1.65151C3.79849 1.61597 4.3108 1.61597 4.93081 1.61597H12.8078Z" fill="#E3FFEE"/>
</svg>
